<svg width="810" height="305" viewBox="0 0 810 305" fill="none" xmlns="http://www.w3.org/2000/svg">
<g clip-path="url(#clip0_219_25)">
<path d="M44.4565 26.3578H5.25562C2.36517 26.3578 0 23.9909 0 21.0965V5.26447C0 2.36842 2.36517 -2.47955e-05 5.25562 -2.47955e-05H44.4565C47.3468 -2.47955e-05 49.711 2.36842 49.711 5.26447V21.0965C49.711 23.9909 47.3468 26.3578 44.4565 26.3578Z" fill="#0F0F0F"/>
<path d="M102.94 26.3578H63.7387C60.849 26.3578 58.4844 23.9909 58.4844 21.0965V5.26447C58.4844 2.36842 60.849 -2.47955e-05 63.7387 -2.47955e-05H102.94C105.83 -2.47955e-05 108.195 2.36842 108.195 5.26447V21.0965C108.195 23.9909 105.83 26.3578 102.94 26.3578Z" fill="#0F0F0F"/>
<path d="M161.423 26.3578H122.223C119.333 26.3578 116.968 23.9909 116.968 21.0965V5.26447C116.968 2.36842 119.333 -2.47955e-05 122.223 -2.47955e-05H161.423C164.314 -2.47955e-05 166.679 2.36842 166.679 5.26447V21.0965C166.679 23.9909 164.314 26.3578 161.423 26.3578Z" fill="#0F0F0F"/>
<path d="M219.906 26.3578H180.706C177.816 26.3578 175.452 23.9909 175.452 21.0965V5.26447C175.452 2.36842 177.816 -2.47955e-05 180.706 -2.47955e-05H219.906C222.797 -2.47955e-05 225.162 2.36842 225.162 5.26447V21.0965C225.162 23.9909 222.797 26.3578 219.906 26.3578Z" fill="#0F0F0F"/>
<path d="M278.392 26.3578H239.191C236.301 26.3578 233.935 23.9909 233.935 21.0965V5.26447C233.935 2.36842 236.301 -2.47955e-05 239.191 -2.47955e-05H278.392C281.282 -2.47955e-05 283.647 2.36842 283.647 5.26447V21.0965C283.647 23.9909 281.282 26.3578 278.392 26.3578Z" fill="#0F0F0F"/>
<path d="M336.876 26.3578H297.674C294.784 26.3578 292.42 23.9909 292.42 21.0965V5.26447C292.42 2.36842 294.784 -2.47955e-05 297.674 -2.47955e-05H336.876C339.766 -2.47955e-05 342.129 2.36842 342.129 5.26447V21.0965C342.129 23.9909 339.766 26.3578 336.876 26.3578Z" fill="#0F0F0F"/>
<path d="M395.359 26.3578H356.158C353.268 26.3578 350.902 23.9909 350.902 21.0965V5.26447C350.902 2.36842 353.268 -2.47955e-05 356.158 -2.47955e-05H395.359C398.25 -2.47955e-05 400.614 2.36842 400.614 5.26447V21.0965C400.614 23.9909 398.25 26.3578 395.359 26.3578Z" fill="#0F0F0F"/>
<path d="M453.843 26.3578H414.641C411.751 26.3578 409.388 23.9909 409.388 21.0965V5.26447C409.388 2.36842 411.751 -2.47955e-05 414.641 -2.47955e-05H453.843C456.733 -2.47955e-05 459.098 2.36842 459.098 5.26447V21.0965C459.098 23.9909 456.733 26.3578 453.843 26.3578Z" fill="#0F0F0F"/>
<path d="M512.326 26.3578H473.125C470.235 26.3578 467.871 23.9909 467.871 21.0965V5.26447C467.871 2.36842 470.235 -2.47955e-05 473.125 -2.47955e-05H512.326C515.216 -2.47955e-05 517.583 2.36842 517.583 5.26447V21.0965C517.583 23.9909 515.216 26.3578 512.326 26.3578Z" fill="#0F0F0F"/>
<path d="M570.811 26.3578H531.608C528.718 26.3578 526.354 23.9909 526.354 21.0965V5.26447C526.354 2.36842 528.718 -2.47955e-05 531.608 -2.47955e-05H570.811C573.701 -2.47955e-05 576.067 2.36842 576.067 5.26447V21.0965C576.067 23.9909 573.701 26.3578 570.811 26.3578Z" fill="#0F0F0F"/>
<path d="M629.293 26.3578H590.093C587.203 26.3578 584.839 23.9909 584.839 21.0965V5.26447C584.839 2.36842 587.203 -2.47955e-05 590.093 -2.47955e-05H629.293C632.185 -2.47955e-05 634.55 2.36842 634.55 5.26447V21.0965C634.55 23.9909 632.185 26.3578 629.293 26.3578Z" fill="#0F0F0F"/>
<path d="M687.778 26.3578H648.577C645.686 26.3578 643.322 23.9909 643.322 21.0965V5.26447C643.322 2.36842 645.686 -2.47955e-05 648.577 -2.47955e-05H687.778C690.668 -2.47955e-05 693.033 2.36842 693.033 5.26447V21.0965C693.033 23.9909 690.668 26.3578 687.778 26.3578Z" fill="#0F0F0F"/>
<path d="M746.262 26.3578H707.061C704.17 26.3578 701.807 23.9909 701.807 21.0965V5.26447C701.807 2.36842 704.17 -2.47955e-05 707.061 -2.47955e-05H746.262C749.152 -2.47955e-05 751.517 2.36842 751.517 5.26447V21.0965C751.517 23.9909 749.152 26.3578 746.262 26.3578Z" fill="#0F0F0F"/>
<path d="M804.745 26.3578H765.543C762.654 26.3578 760.29 23.9909 760.29 21.0965V5.26447C760.29 2.36842 762.654 -2.47955e-05 765.543 -2.47955e-05H804.745C807.635 -2.47955e-05 810 2.36842 810 5.26447V21.0965C810 23.9909 807.635 26.3578 804.745 26.3578Z" fill="#0F0F0F"/>
<path d="M42.9621 82.0529H5.25562C2.36517 82.0529 0 79.6845 0 76.7884V39.0244C0 36.13 2.36517 33.7615 5.25562 33.7615H42.9621C45.8523 33.7615 48.217 36.13 48.217 39.0244V76.7884C48.217 79.6845 45.8523 82.0529 42.9621 82.0529Z" fill="#0F0F0F"/>
<path d="M69.8881 137.746H5.25562C2.36517 137.746 0 135.38 0 132.483V94.7195C0 91.8234 2.36517 89.455 5.25562 89.455H69.8881C72.7795 89.455 75.1439 91.8234 75.1439 94.7195V132.483C75.1439 135.38 72.7795 137.746 69.8881 137.746Z" fill="#0F0F0F"/>
<path d="M84.0874 193.441H5.25562C2.36517 193.441 0 191.073 0 188.177V150.413C0 147.519 2.36517 145.15 5.25562 145.15H84.0874C86.9776 145.15 89.3424 147.519 89.3424 150.413V188.177C89.3424 191.073 86.9776 193.441 84.0874 193.441Z" fill="#0F0F0F"/>
<path d="M113.377 249.135H5.25562C2.36517 249.135 0 246.768 0 243.872V206.107C0 203.212 2.36517 200.844 5.25562 200.844H113.377C116.268 200.844 118.633 203.212 118.633 206.107V243.872C118.633 246.768 116.268 249.135 113.377 249.135Z" fill="#0F0F0F"/>
<path d="M99.5314 82.0529H61.8251C58.9346 82.0529 56.5698 79.6845 56.5698 76.7884V39.0244C56.5698 36.13 58.9346 33.7615 61.8251 33.7615H99.5314C102.422 33.7615 104.786 36.13 104.786 39.0244V76.7884C104.786 79.6845 102.422 82.0529 99.5314 82.0529Z" fill="#0F0F0F"/>
<path d="M156.1 82.0529H118.394C115.505 82.0529 113.14 79.6845 113.14 76.7884V39.0244C113.14 36.13 115.505 33.7615 118.394 33.7615H156.1C158.992 33.7615 161.356 36.13 161.356 39.0244V76.7884C161.356 79.6845 158.992 82.0529 156.1 82.0529Z" fill="#0F0F0F"/>
<path d="M212.67 82.0529H174.965C172.073 82.0529 169.708 79.6845 169.708 76.7884V39.0244C169.708 36.13 172.073 33.7615 174.965 33.7615H212.67C215.56 33.7615 217.925 36.13 217.925 39.0244V76.7884C217.925 79.6845 215.56 82.0529 212.67 82.0529Z" fill="#0F0F0F"/>
<path d="M269.24 82.0529H231.535C228.643 82.0529 226.28 79.6845 226.28 76.7884V39.0244C226.28 36.13 228.643 33.7615 231.535 33.7615H269.24C272.13 33.7615 274.495 36.13 274.495 39.0244V76.7884C274.495 79.6845 272.13 82.0529 269.24 82.0529Z" fill="#0F0F0F"/>
<path d="M325.809 82.0529H288.102C285.212 82.0529 282.849 79.6845 282.849 76.7884V39.0244C282.849 36.13 285.212 33.7615 288.102 33.7615H325.809C328.701 33.7615 331.066 36.13 331.066 39.0244V76.7884C331.066 79.6845 328.701 82.0529 325.809 82.0529Z" fill="#0F0F0F"/>
<path d="M382.381 82.0529H344.673C341.783 82.0529 339.419 79.6845 339.419 76.7884V39.0244C339.419 36.13 341.783 33.7615 344.673 33.7615H382.381C385.271 33.7615 387.635 36.13 387.635 39.0244V76.7884C387.635 79.6845 385.271 82.0529 382.381 82.0529Z" fill="#0F0F0F"/>
<path d="M438.95 82.0529H401.243C398.353 82.0529 395.988 79.6845 395.988 76.7884V39.0244C395.988 36.13 398.353 33.7615 401.243 33.7615H438.95C441.84 33.7615 444.205 36.13 444.205 39.0244V76.7884C444.205 79.6845 441.84 82.0529 438.95 82.0529Z" fill="#0F0F0F"/>
<path d="M495.52 82.0529H457.812C454.923 82.0529 452.559 79.6845 452.559 76.7884V39.0244C452.559 36.13 454.923 33.7615 457.812 33.7615H495.52C498.41 33.7615 500.773 36.13 500.773 39.0244V76.7884C500.773 79.6845 498.41 82.0529 495.52 82.0529Z" fill="#0F0F0F"/>
<path d="M552.088 82.0529H514.382C511.492 82.0529 509.127 79.6845 509.127 76.7884V39.0244C509.127 36.13 511.492 33.7615 514.382 33.7615H552.088C554.979 33.7615 557.344 36.13 557.344 39.0244V76.7884C557.344 79.6845 554.979 82.0529 552.088 82.0529Z" fill="#0F0F0F"/>
<path d="M608.659 82.0529H570.952C568.062 82.0529 565.698 79.6845 565.698 76.7884V39.0244C565.698 36.13 568.062 33.7615 570.952 33.7615H608.659C611.549 33.7615 613.915 36.13 613.915 39.0244V76.7884C613.915 79.6845 611.549 82.0529 608.659 82.0529Z" fill="#0F0F0F"/>
<path d="M665.227 82.0529H627.523C624.631 82.0529 622.268 79.6845 622.268 76.7884V39.0244C622.268 36.13 624.631 33.7615 627.523 33.7615H665.227C668.12 33.7615 670.483 36.13 670.483 39.0244V76.7884C670.483 79.6845 668.12 82.0529 665.227 82.0529Z" fill="#0F0F0F"/>
<path d="M721.798 82.0529H684.092C681.202 82.0529 678.838 79.6845 678.838 76.7884V39.0244C678.838 36.13 681.202 33.7615 684.092 33.7615H721.798C724.688 33.7615 727.054 36.13 727.054 39.0244V76.7884C727.054 79.6845 724.688 82.0529 721.798 82.0529Z" fill="#0F0F0F"/>
<path d="M127.049 137.746H89.3425C86.4517 137.746 84.0874 135.38 84.0874 132.483V94.7195C84.0874 91.8234 86.4517 89.455 89.3425 89.455H127.049C129.939 89.455 132.303 91.8234 132.303 94.7195V132.483C132.303 135.38 129.939 137.746 127.049 137.746Z" fill="#0F0F0F"/>
<path d="M141.201 193.441H103.495C100.605 193.441 98.2397 191.073 98.2397 188.177V150.413C98.2397 147.519 100.605 145.15 103.495 145.15H141.201C144.091 145.15 146.457 147.519 146.457 150.413V188.177C146.457 191.073 144.091 193.441 141.201 193.441Z" fill="#0F0F0F"/>
<path d="M198.139 193.441H160.432C157.542 193.441 155.177 191.073 155.177 188.177V150.413C155.177 147.519 157.542 145.15 160.432 145.15H198.139C201.029 145.15 203.394 147.519 203.394 150.413V188.177C203.394 191.073 201.029 193.441 198.139 193.441Z" fill="#0F0F0F"/>
<path d="M217.37 192.441H255.078C257.414 192.441 259.332 190.523 259.332 188.177V150.413C259.332 148.069 257.414 146.15 255.078 146.15H217.37C215.034 146.15 213.116 148.069 213.116 150.413V188.177C213.116 190.523 215.034 192.441 217.37 192.441Z" fill="#0F0F0F" stroke="#3B71CA" stroke-width="2"/>
<path d="M274.307 192.441H312.016C314.352 192.441 316.271 190.522 316.271 188.177V150.413C316.271 148.07 314.352 146.15 312.016 146.15H274.307C271.972 146.15 270.054 148.069 270.054 150.413V188.177C270.054 190.523 271.972 192.441 274.307 192.441Z" fill="#0F0F0F" stroke="#B5B5B5" stroke-width="2"/>
<path d="M331.249 192.441H368.953C371.292 192.441 373.209 190.522 373.209 188.177V150.413C373.209 148.07 371.292 146.15 368.953 146.15H331.249C328.911 146.15 326.992 148.07 326.992 150.413V188.177C326.992 190.522 328.911 192.441 331.249 192.441Z" fill="#0F0F0F" stroke="#B5B5B5" stroke-width="2"/>
<path d="M425.893 193.441H388.185C385.295 193.441 382.931 191.073 382.931 188.177V150.413C382.931 147.519 385.295 145.15 388.185 145.15H425.893C428.783 145.15 431.146 147.519 431.146 150.413V188.177C431.146 191.073 428.783 193.441 425.893 193.441Z" fill="#0F0F0F"/>
<path d="M445.126 192.441H482.829C485.165 192.441 487.084 190.522 487.084 188.177V150.413C487.084 148.07 485.166 146.15 482.829 146.15H445.126C442.788 146.15 440.869 148.07 440.869 150.413V188.177C440.869 190.522 442.788 192.441 445.126 192.441Z" fill="#0F0F0F" stroke="#3A75B0" stroke-width="2"/>
<path d="M539.767 193.441H502.062C499.172 193.441 496.807 191.073 496.807 188.177V150.413C496.807 147.519 499.172 145.15 502.062 145.15H539.767C542.657 145.15 545.024 147.519 545.024 150.413V188.177C545.024 191.073 542.657 193.441 539.767 193.441Z" fill="#0F0F0F"/>
<path d="M596.706 193.441H558.999C556.109 193.441 553.745 191.073 553.745 188.177V150.413C553.745 147.519 556.109 145.15 558.999 145.15H596.706C599.596 145.15 601.961 147.519 601.961 150.413V188.177C601.961 191.073 599.596 193.441 596.706 193.441Z" fill="#0F0F0F"/>
<path d="M653.644 193.441H615.937C613.049 193.441 610.684 191.073 610.684 188.177V150.413C610.684 147.519 613.049 145.15 615.937 145.15H653.644C656.534 145.15 658.901 147.519 658.901 150.413V188.177C658.901 191.073 656.534 193.441 653.644 193.441Z" fill="#0F0F0F"/>
<path d="M710.582 193.441H672.877C669.987 193.441 667.62 191.073 667.62 188.177V150.413C667.62 147.519 669.987 145.15 672.877 145.15H710.582C713.474 145.15 715.839 147.519 715.839 150.413V188.177C715.839 191.073 713.474 193.441 710.582 193.441Z" fill="#0F0F0F"/>
<path d="M170.492 249.135H132.785C129.895 249.135 127.53 246.768 127.53 243.872V206.107C127.53 203.212 129.895 200.844 132.785 200.844H170.492C173.381 200.844 175.746 203.212 175.746 206.107V243.872C175.746 246.768 173.381 249.135 170.492 249.135Z" fill="#0F0F0F"/>
<path d="M39.5432 305H6.00286C3.11259 305 0.747803 302.63 0.747803 299.737V261.971C0.747803 259.077 3.11259 256.709 6.00286 256.709H39.5432C42.4333 256.709 44.7988 259.077 44.7988 261.971V299.737C44.7988 302.63 42.4333 305 39.5432 305Z" fill="#0F0F0F"/>
<path d="M227.545 305H178.374C175.484 305 173.119 302.63 173.119 299.737V261.971C173.119 259.077 175.484 256.709 178.374 256.709H227.545C230.435 256.709 232.801 259.077 232.801 261.971V299.737C232.801 302.63 230.435 305 227.545 305Z" fill="#0F0F0F"/>
<path d="M159.026 305H118.633C115.742 305 113.377 302.63 113.377 299.737V261.971C113.377 259.077 115.742 256.709 118.633 256.709H159.026C161.916 256.709 164.281 259.077 164.281 261.971V299.737C164.281 302.63 161.916 305 159.026 305Z" fill="#0F0F0F"/>
<path d="M99.2854 305H58.8903C56.0002 305 53.6353 302.63 53.6353 299.737V261.971C53.6353 259.077 56.0002 256.709 58.8903 256.709H99.2854C102.175 256.709 104.54 259.077 104.54 261.971V299.737C104.54 302.63 102.175 305 99.2854 305Z" fill="#0F0F0F"/>
<path d="M227.544 249.135H189.839C186.949 249.135 184.583 246.768 184.583 243.872V206.107C184.583 203.212 186.949 200.844 189.839 200.844H227.544C230.434 200.844 232.801 203.212 232.801 206.107V243.872C232.801 246.768 230.434 249.135 227.544 249.135Z" fill="#0F0F0F"/>
<path d="M284.599 249.135H246.894C244.002 249.135 241.637 246.768 241.637 243.872V206.107C241.637 203.212 244.002 200.844 246.894 200.844H284.599C287.489 200.844 289.854 203.212 289.854 206.107V243.872C289.854 246.768 287.489 249.135 284.599 249.135Z" fill="#0F0F0F"/>
<path d="M512.814 305H246.894C244.002 305 241.637 302.63 241.637 299.737V261.971C241.637 259.077 244.002 256.709 246.894 256.709H512.814C515.704 256.709 518.069 259.077 518.069 261.971V299.737C518.069 302.63 515.704 305 512.814 305Z" fill="#0F0F0F"/>
<path d="M341.654 249.135H303.945C301.055 249.135 298.692 246.768 298.692 243.872V206.107C298.692 203.212 301.055 200.844 303.945 200.844H341.654C344.544 200.844 346.907 203.212 346.907 206.107V243.872C346.907 246.768 344.544 249.135 341.654 249.135Z" fill="#0F0F0F"/>
<path d="M398.707 249.135H361C358.11 249.135 355.747 246.768 355.747 243.872V206.107C355.747 203.212 358.11 200.844 361 200.844H398.707C401.598 200.844 403.962 203.212 403.962 206.107V243.872C403.962 246.768 401.598 249.135 398.707 249.135Z" fill="#0F0F0F"/>
<path d="M418.054 248.135H455.76C458.097 248.135 460.016 246.217 460.016 243.872V206.107C460.016 203.763 458.096 201.844 455.76 201.844H418.054C415.718 201.844 413.8 203.763 413.8 206.107V243.872C413.8 246.217 415.718 248.135 418.054 248.135Z" fill="#0F0F0F" stroke="#44883E" stroke-width="2"/>
<path d="M512.815 249.135H475.106C472.218 249.135 469.853 246.768 469.853 243.872V206.107C469.853 203.212 472.218 200.844 475.106 200.844H512.815C515.705 200.844 518.069 203.212 518.069 206.107V243.872C518.069 246.768 515.705 249.135 512.815 249.135Z" fill="#0F0F0F"/>
<path d="M569.869 249.135H532.161C529.271 249.135 526.906 246.768 526.906 243.872V206.107C526.906 203.212 529.271 200.844 532.161 200.844H569.869C572.759 200.844 575.122 203.212 575.122 206.107V243.872C575.122 246.768 572.759 249.135 569.869 249.135Z" fill="#0F0F0F"/>
<path d="M581.333 305H532.161C529.271 305 526.906 302.63 526.906 299.737V261.971C526.906 259.077 529.271 256.709 532.161 256.709H581.333C584.223 256.709 586.586 259.077 586.586 261.971V299.737C586.586 302.63 584.223 305 581.333 305Z" fill="#0F0F0F"/>
<path d="M639.832 305H600.681C597.789 305 595.426 302.63 595.426 299.737V261.971C595.426 259.077 597.789 256.709 600.681 256.709H639.832C642.723 256.709 645.087 259.077 645.087 261.971V299.737C645.087 302.63 642.723 305 639.832 305Z" fill="#0F0F0F"/>
<path d="M695.537 305H659.178C656.29 305 653.925 302.63 653.925 299.737V273.831C653.925 270.935 656.29 268.567 659.178 268.567H695.537C698.427 268.567 700.79 270.935 700.79 273.831V299.737C700.79 302.63 698.427 305 695.537 305Z" fill="#0F0F0F"/>
<path d="M755.023 261.971C755.023 259.077 752.657 256.709 749.767 256.709H713.411C710.521 256.709 708.155 259.077 708.155 261.971C708.155 276.979 708.155 284.728 708.155 299.737C708.155 302.632 710.521 305 713.411 305H749.767C752.657 305 755.023 302.632 755.023 299.737C755.023 284.729 755.023 276.979 755.023 261.971Z" fill="#0F0F0F"/>
<path d="M626.921 249.135H589.215C586.325 249.135 583.96 246.768 583.96 243.872V206.107C583.96 203.212 586.325 200.844 589.215 200.844H626.921C629.811 200.844 632.177 203.212 632.177 206.107V243.872C632.177 246.768 629.811 249.135 626.921 249.135Z" fill="#0F0F0F"/>
<path d="M683.975 249.135H646.27C643.378 249.135 641.015 246.768 641.015 243.872V206.107C641.015 203.212 643.378 200.844 646.27 200.844H683.975C686.865 200.844 689.232 203.212 689.232 206.107V243.872C689.232 246.768 686.865 249.135 683.975 249.135Z" fill="#0F0F0F"/>
<path d="M183.46 137.746H145.755C142.865 137.746 140.5 135.38 140.5 132.483V94.7195C140.5 91.8234 142.865 89.455 145.755 89.455H183.46C186.352 89.455 188.715 91.8234 188.715 94.7195V132.483C188.715 135.38 186.352 137.746 183.46 137.746Z" fill="#0F0F0F"/>
<path d="M239.873 137.746H202.167C199.277 137.746 196.911 135.38 196.911 132.483V94.7195C196.911 91.8234 199.277 89.455 202.167 89.455H239.873C242.763 89.455 245.128 91.8234 245.128 94.7195V132.483C245.128 135.38 242.763 137.746 239.873 137.746Z" fill="#0F0F0F"/>
<path d="M258.58 136.746H296.286C298.622 136.746 300.542 134.828 300.542 132.483V94.7195C300.542 92.3745 298.622 90.455 296.286 90.455H258.58C256.244 90.455 254.324 92.3745 254.324 94.7195V132.483C254.324 134.828 256.243 136.746 258.58 136.746Z" fill="#0F0F0F" stroke="#3B71CA" stroke-width="2"/>
<path d="M314.991 136.746H352.698C355.036 136.746 356.954 134.828 356.954 132.483V94.7195C356.954 92.3743 355.036 90.455 352.698 90.455H314.991C312.655 90.455 310.738 92.3737 310.738 94.7195V132.483C310.738 134.829 312.655 136.746 314.991 136.746Z" fill="#0F0F0F" stroke="#FFA800" stroke-width="2"/>
<path d="M409.112 137.746H371.404C368.514 137.746 366.15 135.38 366.15 132.483V94.7195C366.15 91.8234 368.514 89.455 371.404 89.455H409.112C412.002 89.455 414.365 91.8234 414.365 94.7195V132.483C414.365 135.38 412.002 137.746 409.112 137.746Z" fill="#0F0F0F"/>
<path d="M465.523 137.746H427.816C424.928 137.746 422.562 135.38 422.562 132.483V94.7195C422.562 91.8234 424.928 89.455 427.816 89.455H465.523C468.413 89.455 470.778 91.8234 470.778 94.7195V132.483C470.778 135.38 468.413 137.746 465.523 137.746Z" fill="#0F0F0F"/>
<path d="M521.934 137.746H484.23C481.339 137.746 478.974 135.38 478.974 132.483V94.7195C478.974 91.8234 481.339 89.455 484.23 89.455H521.934C524.826 89.455 527.191 91.8234 527.191 94.7195V132.483C527.191 135.38 524.826 137.746 521.934 137.746Z" fill="#0F0F0F"/>
<path d="M578.349 137.746H540.64C537.75 137.746 535.387 135.38 535.387 132.483V94.7195C535.387 91.8234 537.75 89.455 540.64 89.455H578.349C581.239 89.455 583.603 91.8234 583.603 94.7195V132.483C583.603 135.38 581.239 137.746 578.349 137.746Z" fill="#0F0F0F"/>
<path d="M597.054 136.746H634.761C637.097 136.746 639.014 134.829 639.014 132.483V94.7195C639.014 92.3737 637.097 90.455 634.761 90.455H597.054C594.718 90.455 592.799 92.3741 592.799 94.7195V132.483C592.799 134.828 594.718 136.746 597.054 136.746Z" fill="#0F0F0F" stroke="#265276" stroke-width="2"/>
<path d="M691.174 137.746H653.467C650.577 137.746 648.21 135.38 648.21 132.483V94.7195C648.21 91.8234 650.577 89.455 653.467 89.455H691.174C694.064 89.455 696.429 91.8234 696.429 94.7195V132.483C696.429 135.38 694.064 137.746 691.174 137.746Z" fill="#0F0F0F"/>
<path d="M747.585 137.746H709.879C706.989 137.746 704.625 135.38 704.625 132.483V94.7195C704.625 91.8234 706.989 89.455 709.879 89.455H747.585C750.475 89.455 752.841 91.8234 752.841 94.7195V132.483C752.841 135.38 750.475 137.746 747.585 137.746Z" fill="#0F0F0F"/>
<path d="M803.998 137.746H766.292C763.402 137.746 761.036 135.38 761.036 132.483V94.7195C761.036 91.8234 763.402 89.455 766.292 89.455H803.998C806.888 89.455 809.254 91.8234 809.254 94.7195V132.483C809.254 135.38 806.888 137.746 803.998 137.746Z" fill="#0F0F0F"/>
<path d="M803.998 82.0529H739.727C736.837 82.0529 734.47 79.6845 734.47 76.7884V39.0244C734.47 36.13 736.837 33.7615 739.727 33.7615H803.998C806.888 33.7615 809.254 36.13 809.254 39.0244V76.7884C809.254 79.6845 806.888 82.0529 803.998 82.0529Z" fill="#0F0F0F"/>
<path d="M803.998 193.441H729.288C726.398 193.441 724.035 191.073 724.035 188.177V150.413C724.035 147.519 726.398 145.15 729.288 145.15H803.998C806.888 145.15 809.254 147.519 809.254 150.413V188.177C809.254 191.073 806.888 193.441 803.998 193.441Z" fill="#0F0F0F"/>
<path d="M803.998 249.135H702.682C699.793 249.135 697.428 246.768 697.428 243.872V206.107C697.428 203.212 699.793 200.844 702.682 200.844H803.998C806.888 200.844 809.254 203.212 809.254 206.107V243.872C809.254 246.768 806.888 249.135 803.998 249.135Z" fill="#0F0F0F"/>
<path d="M803.999 305H767.642C764.753 305 762.389 302.63 762.389 299.737V273.831C762.389 270.935 764.753 268.567 767.642 268.567H803.999C806.891 268.567 809.254 270.935 809.254 273.831V299.737C809.254 302.63 806.891 305 803.999 305Z" fill="#0F0F0F"/>
<path d="M285.054 109.777C284.769 109.681 284.484 109.59 284.199 109.504C284.247 109.306 284.289 109.108 284.331 108.91C284.98 105.717 284.553 103.151 283.113 102.305C281.726 101.496 279.464 102.337 277.175 104.362C276.948 104.56 276.727 104.769 276.516 104.978C276.373 104.838 276.226 104.699 276.078 104.565C273.679 102.401 271.274 101.49 269.834 102.342C268.453 103.156 268.041 105.572 268.621 108.594C268.679 108.894 268.743 109.188 268.817 109.488C268.479 109.585 268.147 109.692 267.836 109.804C265.02 110.795 263 112.359 263 113.977C263 115.649 265.152 117.325 268.078 118.343C268.316 118.423 268.553 118.504 268.796 118.573C268.716 118.895 268.648 119.211 268.585 119.538C268.031 122.511 268.463 124.868 269.845 125.677C271.269 126.512 273.663 125.655 275.994 123.582C276.178 123.416 276.363 123.245 276.547 123.062C276.779 123.293 277.022 123.512 277.265 123.727C279.522 125.698 281.752 126.496 283.129 125.687C284.553 124.852 285.017 122.318 284.415 119.232C284.368 118.997 284.315 118.756 284.257 118.509C284.426 118.461 284.589 118.407 284.753 118.354C287.796 117.331 290 115.675 290 113.977C290 112.354 287.922 110.779 285.054 109.777ZM277.919 105.23C279.88 103.494 281.71 102.814 282.543 103.301C283.435 103.821 283.777 105.921 283.218 108.679C283.181 108.861 283.145 109.038 283.097 109.215C281.926 108.947 280.74 108.754 279.548 108.647C278.862 107.651 278.114 106.697 277.302 105.803C277.507 105.604 277.708 105.417 277.919 105.23ZM271.817 116.757C272.086 117.224 272.36 117.69 272.65 118.145C271.828 118.054 271.01 117.92 270.204 117.743C270.436 116.972 270.726 116.174 271.063 115.359C271.306 115.831 271.554 116.297 271.817 116.757ZM270.219 110.313C270.979 110.142 271.786 110.002 272.624 109.895C272.345 110.34 272.07 110.795 271.812 111.256C271.554 111.711 271.3 112.177 271.063 112.649C270.731 111.851 270.451 111.068 270.219 110.313ZM271.664 114.004C272.012 113.265 272.392 112.542 272.793 111.829C273.194 111.117 273.626 110.426 274.079 109.745C274.871 109.686 275.677 109.654 276.5 109.654C277.323 109.654 278.135 109.686 278.921 109.745C279.369 110.42 279.796 111.111 280.202 111.818C280.608 112.526 280.988 113.249 281.346 113.983C280.993 114.722 280.613 115.45 280.207 116.168C279.806 116.881 279.379 117.572 278.931 118.257C278.145 118.316 277.328 118.343 276.5 118.343C275.672 118.343 274.871 118.316 274.095 118.268C273.637 117.588 273.204 116.891 272.798 116.179C272.392 115.466 272.018 114.743 271.664 114.004ZM281.188 116.747C281.457 116.275 281.71 115.799 281.958 115.316C282.296 116.093 282.591 116.881 282.849 117.69C282.032 117.877 281.204 118.022 280.371 118.118C280.655 117.668 280.924 117.207 281.188 116.747ZM281.947 112.649C281.7 112.177 281.446 111.706 281.183 111.245C280.924 110.79 280.655 110.34 280.376 109.895C281.225 110.002 282.037 110.147 282.796 110.324C282.554 111.117 282.269 111.888 281.947 112.649ZM276.511 106.622C277.064 107.233 277.586 107.876 278.071 108.54C277.027 108.492 275.978 108.492 274.934 108.54C275.451 107.849 275.983 107.206 276.511 106.622ZM270.393 103.339C271.279 102.814 273.246 103.564 275.319 105.428C275.451 105.546 275.582 105.674 275.72 105.803C274.902 106.697 274.148 107.651 273.457 108.647C272.265 108.754 271.084 108.942 269.913 109.204C269.845 108.931 269.787 108.653 269.729 108.374C269.233 105.781 269.56 103.826 270.393 103.339ZM269.101 117.459C268.88 117.395 268.664 117.325 268.447 117.25C267.324 116.891 266.048 116.324 265.125 115.579C264.593 115.204 264.234 114.625 264.134 113.977C264.134 112.997 265.8 111.743 268.205 110.892C268.505 110.785 268.811 110.688 269.117 110.597C269.476 111.76 269.908 112.901 270.409 114.004C269.903 115.124 269.465 116.281 269.101 117.459ZM275.25 122.709C274.38 123.518 273.373 124.161 272.276 124.6C271.691 124.884 271.016 124.911 270.414 124.67C269.576 124.177 269.228 122.286 269.703 119.741C269.761 119.441 269.824 119.141 269.898 118.847C271.079 119.104 272.271 119.281 273.478 119.372C274.174 120.373 274.939 121.332 275.756 122.232C275.588 122.398 275.419 122.559 275.25 122.709ZM276.542 121.407C276.004 120.818 275.466 120.164 274.944 119.463C275.451 119.484 275.973 119.495 276.5 119.495C277.043 119.495 277.576 119.484 278.103 119.457C277.618 120.138 277.096 120.786 276.542 121.407ZM283.435 123.014C283.387 123.668 283.071 124.278 282.564 124.691C281.726 125.184 279.938 124.541 278.008 122.859C277.787 122.666 277.565 122.457 277.338 122.243C278.145 121.338 278.889 120.379 279.564 119.372C280.771 119.27 281.974 119.082 283.16 118.809C283.213 119.029 283.261 119.248 283.303 119.463C283.561 120.62 283.603 121.825 283.435 123.014ZM284.394 117.256C284.247 117.304 284.099 117.352 283.946 117.395C283.577 116.227 283.123 115.086 282.601 113.977C283.108 112.884 283.535 111.76 283.893 110.608C284.168 110.688 284.431 110.774 284.684 110.86C287.142 111.717 288.866 112.992 288.866 113.967C288.866 115.016 287.026 116.372 284.394 117.256ZM276.5 116.452C277.834 116.452 278.915 115.354 278.915 113.999C278.915 112.643 277.834 111.545 276.5 111.545C275.166 111.545 274.085 112.643 274.085 113.999C274.085 115.354 275.166 116.452 276.5 116.452Z" fill="#3B71CA"/>
<path d="M348.561 164.315H344.689C342.736 163.803 338.318 163.937 338.318 167.967C338.318 169.437 339.05 170.469 340.027 170.946C338.801 172.069 338.22 172.599 338.22 173.349C338.22 173.886 338.438 174.381 339.094 174.658C338.397 175.312 338 175.788 338 176.682C338 178.25 339.37 179.163 342.962 179.163C346.417 179.163 348.421 177.873 348.421 175.59C348.421 172.726 346.216 172.831 341.017 172.514L341.673 171.461C343.004 171.832 347.469 171.95 347.469 168.146C347.469 167.233 347.091 166.598 346.736 166.141L348.563 166.002L348.561 164.315ZM345.464 176.127C345.464 177.692 340.343 177.694 340.343 176.246C340.343 175.848 340.6 175.513 340.859 175.194C344.653 175.453 345.464 175.358 345.464 176.127ZM342.983 169.556C340.405 169.556 340.52 166.081 343.042 166.081C345.461 166.081 345.523 169.556 342.983 169.556ZM349.492 174.463V172.896C350.798 172.717 350.822 172.798 350.822 172.359V166.523C350.822 166.108 350.722 166.163 349.492 165.729L349.71 164.122H353.82V172.36C353.82 172.678 353.84 172.717 354.138 172.757L355.15 172.896V174.463H349.492ZM352.053 162.534C350.922 162.534 350.267 161.878 350.267 160.747C350.267 159.615 350.922 159 352.053 159C353.205 159 353.86 159.616 353.86 160.747C353.86 161.877 353.205 162.534 352.053 162.534ZM363 173.694C362.146 174.11 360.896 174.488 359.764 174.488C357.401 174.488 356.508 173.536 356.508 171.292V166.091C356.508 165.826 356.56 165.893 354.96 165.893V164.125C356.707 163.927 357.401 163.051 357.62 160.89H359.506C359.506 164.104 359.44 163.908 359.665 163.908H362.463V165.893H359.506V170.636C359.506 170.974 359.266 173.146 362.463 171.947L363 173.694Z" fill="#B5B5B5"/>
<path d="M436.355 232.312C436.273 232.312 436.191 232.288 436.117 232.249L435.367 231.804C435.254 231.742 435.309 231.718 435.348 231.706C435.496 231.656 435.527 231.644 435.688 231.55C435.703 231.542 435.727 231.546 435.742 231.554L436.32 231.898C436.34 231.91 436.371 231.91 436.391 231.898L438.648 230.593C438.668 230.581 438.684 230.558 438.684 230.531V227.925C438.684 227.898 438.672 227.874 438.648 227.863L436.391 226.562C436.371 226.55 436.344 226.55 436.32 226.562L434.062 227.863C434.039 227.874 434.027 227.902 434.027 227.925V230.531C434.027 230.554 434.043 230.578 434.062 230.589L434.68 230.945C435.016 231.113 435.223 230.913 435.223 230.718V228.144C435.223 228.109 435.25 228.078 435.289 228.078H435.574C435.609 228.078 435.641 228.105 435.641 228.144V230.718C435.641 231.167 435.398 231.421 434.973 231.421C434.844 231.421 434.738 231.421 434.453 231.281L433.859 230.941C433.715 230.855 433.621 230.699 433.621 230.531V227.925C433.621 227.757 433.711 227.597 433.859 227.515L436.117 226.21C436.262 226.128 436.449 226.128 436.59 226.21L438.848 227.515C438.992 227.601 439.086 227.757 439.086 227.925V230.531C439.086 230.699 438.996 230.859 438.848 230.941L436.59 232.246C436.523 232.288 436.441 232.312 436.355 232.312ZM438.18 229.742C438.18 229.253 437.852 229.124 437.156 229.031C436.453 228.937 436.383 228.89 436.383 228.726C436.383 228.589 436.441 228.41 436.961 228.41C437.426 228.41 437.598 228.511 437.668 228.824C437.676 228.855 437.699 228.874 437.73 228.874H438.023C438.043 228.874 438.059 228.867 438.07 228.855C438.082 228.839 438.09 228.824 438.086 228.804C438.039 228.265 437.684 228.015 436.961 228.015C436.316 228.015 435.934 228.288 435.934 228.742C435.934 229.238 436.316 229.371 436.934 229.433C437.672 229.507 437.73 229.613 437.73 229.757C437.73 230.011 437.527 230.117 437.051 230.117C436.453 230.117 436.32 229.968 436.277 229.671C436.273 229.64 436.246 229.617 436.211 229.617H435.918C435.883 229.617 435.852 229.644 435.852 229.683C435.852 230.062 436.059 230.515 437.047 230.515C437.77 230.515 438.18 230.234 438.18 229.742ZM440.309 227.785C440.309 228.023 440.113 228.218 439.875 228.218C439.637 228.218 439.441 228.023 439.441 227.785C439.441 227.538 439.645 227.351 439.875 227.351C440.109 227.347 440.309 227.538 440.309 227.785ZM440.238 227.785C440.238 227.581 440.074 227.421 439.871 227.421C439.672 227.421 439.508 227.581 439.508 227.785C439.508 227.988 439.672 228.152 439.871 228.152C440.074 228.148 440.238 227.984 440.238 227.785ZM440.062 228.027H439.961C439.957 228.003 439.941 227.878 439.941 227.874C439.934 227.847 439.926 227.831 439.891 227.831H439.805V228.027H439.711V227.538H439.879C439.938 227.538 440.051 227.538 440.051 227.667C440.051 227.757 439.992 227.777 439.957 227.788C440.023 227.792 440.027 227.835 440.039 227.898C440.043 227.937 440.051 228.003 440.062 228.027ZM439.953 227.683C439.953 227.617 439.906 227.617 439.883 227.617H439.805V227.753H439.879C439.941 227.753 439.953 227.71 439.953 227.683ZM429.363 222.117C429.363 222.011 429.309 221.917 429.219 221.867L426.824 220.488C426.785 220.464 426.738 220.453 426.691 220.449H426.668C426.621 220.449 426.578 220.464 426.535 220.488L424.145 221.867C424.055 221.917 424 222.015 424 222.117L424.004 225.828C424.004 225.878 424.031 225.925 424.074 225.953C424.117 225.98 424.172 225.98 424.219 225.953L425.641 225.136C425.73 225.081 425.785 224.988 425.785 224.886V223.152C425.785 223.05 425.84 222.953 425.93 222.902L426.535 222.554C426.582 222.527 426.629 222.515 426.68 222.515C426.73 222.515 426.781 222.527 426.824 222.554L427.43 222.902C427.52 222.953 427.574 223.05 427.574 223.152V224.886C427.574 224.988 427.629 225.085 427.719 225.136L429.141 225.953C429.184 225.98 429.242 225.98 429.285 225.953C429.328 225.929 429.355 225.878 429.355 225.828L429.363 222.117ZM442.457 218.066V224.956C442.457 225.058 442.402 225.156 442.312 225.206L439.918 226.589C439.828 226.64 439.719 226.64 439.629 226.589L437.234 225.206C437.145 225.156 437.09 225.058 437.09 224.956V222.191C437.09 222.089 437.145 221.992 437.234 221.941L439.629 220.558C439.719 220.507 439.828 220.507 439.918 220.558L440.516 220.902C440.582 220.941 440.668 220.89 440.668 220.816V217.144C440.668 217.035 440.785 216.964 440.883 217.019L442.309 217.816C442.398 217.863 442.457 217.96 442.457 218.066ZM440.66 223.101C440.66 223.074 440.645 223.05 440.625 223.038L439.805 222.562C439.781 222.55 439.754 222.55 439.73 222.562L438.91 223.038C438.887 223.05 438.875 223.074 438.875 223.101V224.05C438.875 224.078 438.891 224.101 438.91 224.113L439.73 224.585C439.754 224.597 439.781 224.597 439.801 224.585L440.621 224.113C440.645 224.101 440.656 224.078 440.656 224.05V223.101H440.66ZM448.855 223.074C448.945 223.023 449 222.925 449 222.824V222.156C449 222.054 448.945 221.956 448.855 221.906L446.477 220.523C446.387 220.472 446.277 220.472 446.188 220.523L443.793 221.906C443.703 221.956 443.648 222.054 443.648 222.156V224.921C443.648 225.027 443.703 225.121 443.793 225.171L446.172 226.527C446.258 226.578 446.367 226.578 446.457 226.527L447.895 225.726C447.992 225.671 447.992 225.531 447.895 225.476L445.484 224.093C445.438 224.066 445.41 224.019 445.41 223.968V223.101C445.41 223.05 445.438 223.003 445.484 222.976L446.234 222.542C446.277 222.515 446.336 222.515 446.379 222.542L447.129 222.976C447.172 223.003 447.203 223.05 447.203 223.101V223.781C447.203 223.89 447.324 223.96 447.422 223.906L448.855 223.074ZM445.836 223.21C445.82 223.222 445.809 223.238 445.809 223.257V223.788C445.809 223.808 445.82 223.828 445.836 223.835L446.297 224.101C446.312 224.113 446.336 224.113 446.352 224.101L446.812 223.835C446.828 223.824 446.84 223.808 446.84 223.788V223.257C446.84 223.238 446.828 223.218 446.812 223.21L446.352 222.945C446.336 222.933 446.312 222.933 446.297 222.945L445.836 223.21ZM435.906 224.91V222.16C435.906 222.058 435.844 221.96 435.754 221.91L433.367 220.535C433.285 220.488 433.172 220.48 433.078 220.535L430.691 221.91C430.602 221.96 430.539 222.054 430.539 222.16V224.91C430.539 225.019 430.613 225.113 430.695 225.16L433.086 226.535C433.18 226.589 433.289 226.585 433.375 226.535L435.758 225.16C435.828 225.121 435.879 225.054 435.898 224.976C435.902 224.956 435.906 224.933 435.906 224.91ZM433.004 220.031L432.973 220.05H433.016L433.004 220.031ZM435.98 225.117L435.965 225.089V225.124L435.98 225.117Z" fill="#44883E"/>
<path d="M626.475 111.228C626.099 109.719 625.386 108.581 623.867 108.581H621.909V110.896C621.909 112.692 620.386 114.206 618.647 114.206H613.433C612.007 114.206 610.825 115.427 610.825 116.857V121.828C610.825 123.244 612.056 124.074 613.433 124.48C615.083 124.963 616.67 125.051 618.647 124.48C619.961 124.099 621.255 123.332 621.255 121.828V119.841H616.045V119.177H623.867C625.386 119.177 625.947 118.117 626.475 116.53C627.022 114.895 626.997 113.322 626.475 111.228ZM618.975 121.164C619.517 121.164 619.956 121.608 619.956 122.155C619.956 122.707 619.517 123.151 618.975 123.151C618.438 123.151 617.993 122.702 617.993 122.155C617.998 121.604 618.438 121.164 618.975 121.164ZM613.193 113.552H618.408C619.858 113.552 621.016 112.356 621.016 110.9V105.925C621.016 104.509 619.824 103.449 618.408 103.21C616.66 102.922 614.761 102.937 613.193 103.215C610.986 103.606 610.586 104.421 610.586 105.93V107.917H615.806V108.581H608.628C607.109 108.581 605.781 109.494 605.366 111.228C604.888 113.215 604.868 114.455 605.366 116.53C605.737 118.073 606.621 119.177 608.14 119.177H609.932V116.794C609.932 115.07 611.421 113.552 613.193 113.552ZM612.866 106.589C612.324 106.589 611.885 106.145 611.885 105.598C611.89 105.046 612.324 104.602 612.866 104.602C613.403 104.602 613.848 105.051 613.848 105.598C613.848 106.145 613.408 106.589 612.866 106.589Z" fill="#265175"/>
<g clip-path="url(#clip1_219_25)">
<path d="M331.967 113.382L335.072 111.58L338.138 113.382L335.072 115.145L331.967 113.42V113.382ZM322.652 108.053L335.072 101L344.31 106.252L341.244 111.58L335.072 108.053L325.757 113.343L322.652 108.053Z" fill="#F6BD3A"/>
<path d="M331.967 120.435V116.908L335.033 115.145L338.138 113.382V116.908L335.072 118.672V122.198L331.967 124V120.435ZM331.967 113.382L328.862 111.618L325.757 113.343V109.817L335.072 104.527V111.58L331.967 113.382ZM341.205 109.817V108.053L344.31 106.252L344.348 109.778L341.243 111.58L341.205 109.817Z" fill="#EB8C23"/>
<path d="M328.862 122.122V111.618L331.928 109.893L331.967 113.382L335.072 115.107V118.672L331.967 117.023V124L328.862 122.122ZM324.185 112.423L322.652 111.503V108.053L325.757 109.817V113.343L324.185 112.423ZM335.072 108.053V104.527L341.205 108.053L341.244 111.58L335.072 108.053L335.072 108.053Z" fill="#E35A2B"/>
</g>
<path d="M297.505 164.335C298.61 164.335 299.67 163.896 300.452 163.114C301.233 162.333 301.672 161.273 301.672 160.167C301.672 159.062 301.233 158.002 300.452 157.221C299.67 156.439 298.61 156 297.505 156H289.17C288.065 156 287.006 156.439 286.225 157.22C285.444 158.001 285.005 159.06 285.005 160.165C285.005 161.27 285.444 162.329 286.225 163.11C287.006 163.891 288.065 164.33 289.17 164.33C288.065 164.33 287.005 164.769 286.223 165.551C285.442 166.332 285.002 167.392 285.002 168.498C285.002 169.603 285.442 170.663 286.223 171.444C287.005 172.226 288.065 172.665 289.17 172.665C288.346 172.665 287.54 172.909 286.854 173.366C286.169 173.824 285.634 174.474 285.318 175.235C285.002 175.997 284.919 176.835 285.08 177.643C285.24 178.452 285.636 179.194 286.219 179.778C286.801 180.361 287.544 180.758 288.352 180.919C289.16 181.081 289.998 180.999 290.76 180.684C291.522 180.369 292.173 179.835 292.631 179.15C293.09 178.465 293.334 177.659 293.335 176.835V164.335H297.505ZM297.505 164.335C296.681 164.335 295.876 164.579 295.191 165.037C294.506 165.495 293.972 166.145 293.657 166.906C293.342 167.667 293.259 168.505 293.42 169.313C293.581 170.12 293.977 170.863 294.56 171.445C295.142 172.028 295.884 172.424 296.692 172.585C297.5 172.746 298.338 172.663 299.099 172.348C299.86 172.033 300.51 171.499 300.968 170.814C301.426 170.129 301.67 169.324 301.67 168.5C301.67 167.395 301.231 166.336 300.45 165.555C299.669 164.774 298.609 164.335 297.505 164.335Z" fill="#B5B5B5"/>
<path d="M467.417 170.278C467.896 169.951 468.56 169.668 468.56 169.668C468.56 169.668 466.67 170.01 464.79 170.166C462.49 170.356 460.02 170.396 458.78 170.229C455.845 169.839 460.391 168.76 460.391 168.76C460.391 168.76 458.628 168.643 456.455 169.687C453.892 170.928 462.803 171.494 467.417 170.278ZM463.247 168.711C462.32 166.626 459.19 164.795 463.247 161.592C468.309 157.598 465.713 155 465.713 155C466.763 159.126 462.022 160.376 460.308 162.939C459.141 164.692 460.879 166.572 463.247 168.711ZM468.843 160.107C468.848 160.107 460.288 162.246 464.375 166.953C465.581 168.34 464.058 169.59 464.058 169.59C464.058 169.59 467.119 168.008 465.713 166.03C464.4 164.185 463.394 163.267 468.843 160.107ZM468.545 173.315C468.518 173.362 468.486 173.405 468.447 173.442C474.712 171.797 472.407 167.637 469.414 168.691C469.253 168.751 469.113 168.858 469.014 168.999C469.189 168.936 469.368 168.887 469.551 168.853C471.065 168.535 473.238 170.879 468.545 173.315ZM470.848 176.357C470.848 176.357 471.556 176.938 470.072 177.393C467.244 178.247 458.314 178.506 455.833 177.427C454.94 177.041 456.614 176.499 457.142 176.387C457.689 176.27 458.006 176.289 458.006 176.289C457.015 175.591 451.595 177.661 455.252 178.252C465.225 179.873 473.436 177.524 470.848 176.357ZM459.932 174.336C456.089 175.41 462.271 177.627 467.163 175.532C466.686 175.347 466.226 175.121 465.786 174.858C463.604 175.273 462.593 175.303 460.611 175.078C458.975 174.893 459.932 174.336 459.932 174.336ZM468.711 179.082C464.868 179.805 460.127 179.722 457.32 179.258C457.32 179.253 457.896 179.731 460.855 179.922C465.357 180.21 472.271 179.761 472.432 177.632C472.432 177.632 472.119 178.438 468.711 179.082ZM466.582 172.236C463.692 172.793 462.017 172.778 459.903 172.559C458.267 172.388 459.336 171.597 459.336 171.597C455.098 173.003 461.69 174.595 467.613 172.861C467.23 172.726 466.879 172.513 466.582 172.236Z" fill="#3A75B0"/>
<path d="M237.67 167.98H235.088V165.66H237.67V167.98ZM237.67 160H235.088V162.371H237.67V160ZM240.724 165.656H238.142V167.977H240.724V165.656ZM234.619 162.84H232.037V165.188H234.619V162.84ZM237.67 162.84H235.088V165.188H237.67V162.84ZM248.482 166.746C247.92 166.367 246.623 166.23 245.627 166.418C245.498 165.48 244.974 164.664 244.021 163.93L243.474 163.566L243.111 164.113C242.392 165.199 242.197 166.988 242.967 168.168C242.627 168.352 241.959 168.602 241.076 168.586H224.095C223.756 170.57 224.322 173.148 225.814 174.918C227.263 176.633 229.435 177.504 232.275 177.504C238.424 177.504 242.974 174.672 245.103 169.527C245.939 169.543 247.744 169.531 248.67 167.762C248.728 167.664 248.927 167.246 249.002 167.094L248.482 166.746ZM228.517 165.656H225.939V167.977H228.521V165.656H228.517ZM231.568 165.656H228.986V167.977H231.568V165.656ZM234.619 165.656H232.037V167.977H234.619V165.656ZM231.568 162.84H228.986V165.188H231.568V162.84Z" fill="#3B71CA"/>
</g>
<defs>
<clipPath id="clip0_219_25">
<rect width="810" height="305" fill="white"/>
</clipPath>
<clipPath id="clip1_219_25">
<rect width="23" height="23" fill="white" transform="translate(322 101)"/>
</clipPath>
</defs>
</svg>
